<?xml version="1.0" encoding="utf-8"?>
<!-- Generator: Adobe Illustrator 15.0.2, SVG Export Plug-In . SVG Version: 6.00 Build 0)  -->
<!DOCTYPE svg PUBLIC "-//W3C//DTD SVG 1.1//EN" "http://www.w3.org/Graphics/SVG/1.1/DTD/svg11.dtd">
<svg version="1.1" id="Layer_1" xmlns="http://www.w3.org/2000/svg" xmlns:xlink="http://www.w3.org/1999/xlink" x="0px" y="0px"
	 width="600px" height="600px" viewBox="0 0 600 600" enable-background="new 0 0 600 600" xml:space="preserve">
<path d="M568.458,299.999c-0.002-5.953-0.195-11.912-0.592-17.859c10.812-4.109,21.531-8.629,32.135-13.558
	c-1.447-13.801-3.859-27.522-7.227-41.016c-11.658-1.056-23.287-1.684-34.861-1.888c-1.67-5.733-3.529-11.412-5.582-17.02
	c-2.055-5.608-4.295-11.149-6.727-16.606c8.734-7.556,17.234-15.469,25.486-23.729c-6.139-12.482-13.148-24.529-20.957-36.031
	c-11.311,3-22.445,6.384-33.385,10.146c-3.541-4.812-7.246-9.505-11.102-14.071c-3.854-4.566-7.863-9.004-12.016-13.303
	c5.615-10.067,10.891-20.387,15.82-30.947c-10.033-9.629-20.736-18.571-32.012-26.741c-9.609,6.65-18.92,13.602-27.92,20.843
	c-4.977-3.327-10.066-6.487-15.258-9.473c-5.191-2.988-10.486-5.804-15.869-8.438c1.822-11.369,3.236-22.864,4.232-34.466
	c-12.768-5.652-25.934-10.426-39.373-14.253c-6.738,9.522-13.086,19.233-19.039,29.105c-5.828-1.422-11.703-2.651-17.612-3.679
	c-5.909-1.03-11.854-1.86-17.815-2.494c-2.218-11.298-4.858-22.576-7.92-33.811c-13.912-0.946-27.822-0.946-41.733,0
	c-3.062,11.235-5.703,22.513-7.92,33.811c-5.961,0.633-11.904,1.463-17.814,2.494c-5.91,1.027-11.786,2.258-17.614,3.679
	c-5.951-9.873-12.301-19.585-19.038-29.105c-13.44,3.828-26.607,8.602-39.372,14.254c0.997,11.603,2.409,23.098,4.231,34.467
	c-5.383,2.633-10.676,5.45-15.868,8.437s-10.283,6.147-15.26,9.474c-9-7.241-18.31-14.192-27.918-20.843
	c-11.276,8.17-21.979,17.111-32.012,26.741c4.929,10.561,10.205,20.88,15.821,30.947c-4.153,4.299-8.161,8.736-12.016,13.302
	c-3.855,4.565-7.561,9.259-11.101,14.071c-10.94-3.762-22.074-7.146-33.386-10.145c-7.808,11.501-14.818,23.549-20.957,36.03
	c8.251,8.26,16.752,16.174,25.486,23.729c-2.43,5.457-4.67,10.997-6.724,16.604c-2.055,5.608-3.914,11.288-5.584,17.021
	c-11.572,0.205-23.202,0.833-34.861,1.889C3.858,241.06,1.446,254.783,0,268.583c10.604,4.929,21.323,9.449,32.135,13.558
	c-0.396,5.947-0.591,11.906-0.593,17.857c0.002,5.956,0.196,11.913,0.593,17.861c-10.812,4.108-21.531,8.629-32.135,13.56
	c1.446,13.799,3.858,27.522,7.226,41.013c11.658,1.059,23.288,1.686,34.861,1.889c1.669,5.734,3.529,11.412,5.583,17.02
	c2.055,5.609,4.294,11.15,6.725,16.607c-8.734,7.555-17.235,15.469-25.487,23.73c6.14,12.479,13.149,24.527,20.958,36.031
	c11.312-3,22.446-6.385,33.386-10.146c3.54,4.812,7.245,9.504,11.101,14.07c3.854,4.566,7.864,9.006,12.017,13.303
	c-5.616,10.066-10.892,20.387-15.82,30.945c10.034,9.631,20.736,18.572,32.012,26.74c9.609-6.646,18.919-13.6,27.919-20.842
	c4.977,3.328,10.066,6.486,15.259,9.473c5.192,2.988,10.485,5.805,15.868,8.439c-1.823,11.369-3.235,22.863-4.231,34.467
	c12.766,5.652,25.933,10.424,39.372,14.252c6.738-9.521,13.086-19.232,19.039-29.104c5.828,1.42,11.703,2.65,17.612,3.678
	c5.909,1.031,11.853,1.861,17.815,2.494c2.217,11.299,4.859,22.578,7.92,33.811c13.912,0.947,27.822,0.947,41.732,0
	c3.062-11.232,5.703-22.512,7.921-33.811c5.962-0.633,11.905-1.463,17.814-2.494c5.91-1.027,11.785-2.258,17.613-3.68
	c5.953,9.873,12.3,19.584,19.039,29.105c13.441-3.826,26.607-8.602,39.373-14.254c-0.996-11.604-2.41-23.098-4.232-34.465
	c5.383-2.635,10.676-5.451,15.869-8.439c5.191-2.986,10.283-6.145,15.26-9.473c9,7.242,18.309,14.193,27.918,20.844
	c11.277-8.172,21.979-17.111,32.012-26.742c-4.928-10.559-10.203-20.879-15.82-30.945c4.152-4.299,8.16-8.738,12.016-13.303
	c3.857-4.566,7.561-9.258,11.102-14.07c10.941,3.762,22.074,7.146,33.387,10.145c7.807-11.502,14.816-23.551,20.957-36.031
	c-8.252-8.262-16.754-16.176-25.486-23.73c2.43-5.457,4.67-10.996,6.725-16.605c2.055-5.607,3.912-11.287,5.582-17.02
	c11.572-0.205,23.203-0.832,34.863-1.889c3.365-13.493,5.779-27.216,7.225-41.015c-10.604-4.931-21.324-9.45-32.137-13.558
	C568.263,311.911,568.456,305.955,568.458,299.999z M300.004,434.3c-74.18,0-134.31-60.119-134.31-134.3
	c0-74.17,60.13-134.3,134.31-134.3c74.17,0,134.301,60.13,134.301,134.3C434.306,374.181,374.175,434.3,300.004,434.3z"/>
</svg>
