<?xml version="1.0" encoding="utf-8"?>
<!-- Generator: Adobe Illustrator 17.1.0, SVG Export Plug-In . SVG Version: 6.00 Build 0)  -->
<!DOCTYPE svg PUBLIC "-//W3C//DTD SVG 1.0//EN" "http://www.w3.org/TR/2001/REC-SVG-20010904/DTD/svg10.dtd">
<svg version="1.0" id="Layer_1" xmlns="http://www.w3.org/2000/svg" xmlns:xlink="http://www.w3.org/1999/xlink" x="0px" y="0px"
	 viewBox="0 0 500 500" enable-background="new 0 0 500 500" xml:space="preserve">
<path fill="#FFFFFF" stroke="#000000" stroke-miterlimit="10" d="M203-249.4h-65.9H90v47v65.9v47h47h9.4h47v-47V-193h-47v56.5H137
	v-65.9h66V32.9H80.6v-9.4h112.9v-47H80.6v-9.4h112.9v-47H80.6h-1.3v-122.3v-47h-47H-203h-47v47v65.9v47h47h65.9h47v-47v-9.4v-47h-47
	h-56.5v47h56.5v9.4H-203v-65.9H32.3V-80h-9.4v-112.9h-47V-80h-9.4v-112.9h-47V-80H-203h-47v47v235.2v47h47h65.9h47v-47v-65.9v-47
	h-47h-9.4h-47v47v56.5h47v-56.5h9.4v65.9H-203V-32.9h122.3v9.4h-112.9v47h112.9v9.4h-112.9v47h112.9h1.3v122.3v47h47H203h47v-47
	v-65.9v-47h-47h-65.9H90v47v9.4v47h47h56.5v-47H137v-9.4h66v65.9H-32.3V80h9.4v112.9h47V80h9.4v112.9h47V80H203h47V33v-235.2v-47
	h-47V-249.4z M32.3-32.9v9.4h-8.1h-1.3v-9.4H32.3z M-24.2-32.9v9.4h-8.1h-1.3v-9.4H-24.2z M-32.3,32.9v-9.4h8.1h1.3v9.4H-32.3z
	 M24.2,32.9v-9.4h8.1h1.3v9.4H24.2z"/>
</svg>
