<?xml version="1.0" encoding="utf-8"?>
<!-- Generator: Adobe Illustrator 15.0.2, SVG Export Plug-In . SVG Version: 6.00 Build 0)  -->
<!DOCTYPE svg PUBLIC "-//W3C//DTD SVG 1.1//EN" "http://www.w3.org/Graphics/SVG/1.1/DTD/svg11.dtd">
<svg version="1.1" id="Layer_1" xmlns="http://www.w3.org/2000/svg" xmlns:xlink="http://www.w3.org/1999/xlink" x="0px" y="0px"
	 width="400px" height="400px" viewBox="0 0 400 400" enable-background="new 0 0 400 400" xml:space="preserve">
<path d="M371.896,200c-0.001-5.747-0.284-11.5-0.855-17.229c9.824-4.27,19.489-9.11,28.96-14.512
	c-2.192-13.892-5.842-27.585-10.889-40.731c-10.906,0.041-21.703,0.67-32.344,1.873c-2.367-5.255-5.005-10.387-7.89-15.374
	s-6.021-9.826-9.391-14.497c6.354-8.622,12.293-17.661,17.778-27.077c-8.847-10.901-18.818-20.874-29.72-29.719
	c-9.417,5.484-18.455,11.423-27.077,17.777c-4.67-3.369-9.51-6.504-14.496-9.39c-4.987-2.886-10.119-5.523-15.375-7.89
	c1.202-10.641,1.832-21.438,1.873-32.344C259.325,5.841,245.632,2.192,231.74,0c-5.403,9.471-10.244,19.136-14.513,28.96
	c-5.729-0.571-11.482-0.855-17.228-0.855c-5.747,0-11.5,0.284-17.229,0.855c-4.27-9.824-9.109-19.489-14.512-28.96
	c-13.893,2.192-27.585,5.841-40.731,10.889c0.041,10.905,0.67,21.703,1.873,32.343c-5.255,2.368-10.387,5.005-15.374,7.89
	c-4.987,2.885-9.826,6.021-14.497,9.39c-8.622-6.354-17.661-12.293-27.077-17.778C61.552,51.581,51.58,61.553,42.734,72.454
	c5.485,9.417,11.424,18.456,17.778,27.077c-3.369,4.67-6.504,9.51-9.39,14.496c-2.885,4.987-5.523,10.119-7.891,15.375
	c-10.641-1.202-21.438-1.831-32.344-1.872C5.841,140.675,2.192,154.369,0,168.26c9.47,5.402,19.136,10.243,28.96,14.513
	c-0.571,5.729-0.855,11.481-0.855,17.227c0,5.746,0.284,11.5,0.855,17.229c-9.824,4.271-19.49,9.109-28.96,14.513
	c2.192,13.892,5.841,27.584,10.888,40.73c10.906-0.04,21.703-0.671,32.343-1.872c2.368,5.255,5.004,10.386,7.89,15.373
	c2.886,4.987,6.021,9.827,9.39,14.497c-6.354,8.621-12.293,17.661-17.777,27.077c8.846,10.9,18.819,20.874,29.719,29.72
	c9.417-5.485,18.455-11.424,27.077-17.778c4.67,3.369,9.51,6.504,14.496,9.39s10.119,5.523,15.375,7.891
	c-1.203,10.641-1.832,21.437-1.873,32.344c13.146,5.047,26.838,8.695,40.731,10.888c5.403-9.471,10.243-19.136,14.512-28.96
	c5.729,0.571,11.482,0.854,17.228,0.855c5.746-0.001,11.5-0.284,17.229-0.855c4.271,9.824,9.11,19.489,14.513,28.96
	c13.892-2.192,27.585-5.842,40.73-10.889c-0.04-10.905-0.67-21.703-1.872-32.344c5.255-2.367,10.387-5.005,15.374-7.89
	c4.986-2.885,9.826-6.021,14.496-9.391c8.622,6.354,17.661,12.293,27.077,17.778c10.901-8.847,20.874-18.818,29.72-29.72
	c-5.485-9.417-11.424-18.455-17.778-27.077c3.369-4.67,6.505-9.51,9.39-14.496c2.886-4.987,5.524-10.119,7.891-15.375
	c10.641,1.202,21.438,1.832,32.344,1.873c5.047-13.146,8.695-26.84,10.888-40.73c-9.471-5.403-19.136-10.244-28.96-14.513
	C371.611,211.498,371.895,205.745,371.896,200z M200.89,262.979c-34.79,0.5-63.38-27.31-63.87-62.09
	c-0.49-34.78,27.31-63.38,62.09-63.87c34.78-0.49,63.38,27.32,63.87,62.1C263.47,233.899,235.669,262.49,200.89,262.979z"/>
</svg>
